REM DIRINDEX 1\2,1\3,1\4
REM DIRNAME cjc105,folder01,folder02,folder03
TITLE ""
FILE "DISC2Track05.mp3" MP3
  TRACK 01 AUDIO
    TITLE "0:"
    INDEX 01 00:00:00
  TRACK 02 AUDIO
    TITLE "4:cjc105_1947"
    INDEX 01 00:00:13
  TRACK 03 AUDIO
    TITLE "0:"
    INDEX 01 00:03:08
  TRACK 04 AUDIO
    TITLE "2:cjc105_1948"
    INDEX 01 00:03:53
  TRACK 05 AUDIO
    TITLE "3:cjc105_1949"
    INDEX 01 00:05:16
  TRACK 06 AUDIO
    TITLE "0:"
    INDEX 01 00:06:69
  TRACK 07 AUDIO
    TITLE "2:cjc105_1950"
    INDEX 01 00:07:07
  TRACK 08 AUDIO
    TITLE "3:cjc105_1951"
    INDEX 01 00:09:02
  TRACK 09 AUDIO
    TITLE "0:"
    INDEX 01 00:10:72
  TRACK 10 AUDIO
    TITLE "2:cjc105_1952"
    INDEX 01 00:11:03
  TRACK 11 AUDIO
    TITLE "3:cjc105_1953"
    INDEX 01 00:12:14
  TRACK 12 AUDIO
    TITLE "0:"
    INDEX 01 00:13:32
  TRACK 13 AUDIO
    TITLE "2:cjc105_1954"
    INDEX 01 00:13:43
  TRACK 14 AUDIO
    TITLE "3:cjc105_1955"
    INDEX 01 00:15:03
  TRACK 15 AUDIO
    TITLE "0:"
    INDEX 01 00:16:42
  TRACK 16 AUDIO
    TITLE "2:cjc105_1956"
    INDEX 01 00:16:53
  TRACK 17 AUDIO
    TITLE "3:cjc105_1957"
    INDEX 01 00:18:03
  TRACK 18 AUDIO
    TITLE "0:"
    INDEX 01 00:19:32
  TRACK 19 AUDIO
    TITLE "2:cjc105_1958"
    INDEX 01 00:19:44
  TRACK 20 AUDIO
    TITLE "3:cjc105_1959"
    INDEX 01 00:20:65
  TRACK 21 AUDIO
    TITLE "0:"
    INDEX 01 00:21:74
  TRACK 22 AUDIO
    TITLE "2:cjc105_1960"
    INDEX 01 00:22:17
  TRACK 23 AUDIO
    TITLE "3:cjc105_1961"
    INDEX 01 00:23:16
  TRACK 24 AUDIO
    TITLE "0:"
    INDEX 01 00:24:47
  TRACK 25 AUDIO
    TITLE "2:cjc105_1962"
    INDEX 01 00:24:63
  TRACK 26 AUDIO
    TITLE "3:cjc105_1963"
    INDEX 01 00:26:13
  TRACK 27 AUDIO
    TITLE "0:"
    INDEX 01 00:27:57
  TRACK 28 AUDIO
    TITLE "2:cjc105_1964"
    INDEX 01 00:27:69
  TRACK 29 AUDIO
    TITLE "3:cjc105_1965"
    INDEX 01 00:29:21
  TRACK 30 AUDIO
    TITLE "0:"
    INDEX 01 00:30:55
  TRACK 31 AUDIO
    TITLE "2:cjc105_1966"
    INDEX 01 00:30:69
  TRACK 32 AUDIO
    TITLE "3:cjc105_1967"
    INDEX 01 00:32:19
  TRACK 33 AUDIO
    TITLE "0:"
    INDEX 01 00:33:38
  TRACK 34 AUDIO
    TITLE "2:cjc105_1968"
    INDEX 01 00:33:52
  TRACK 35 AUDIO
    TITLE "3:cjc105_1969"
    INDEX 01 00:35:35
  TRACK 36 AUDIO
    TITLE "0:"
    INDEX 01 00:36:62
  TRACK 37 AUDIO
    TITLE "2:cjc105_1970"
    INDEX 01 00:37:01
  TRACK 38 AUDIO
    TITLE "3:cjc105_1971"
    INDEX 01 00:38:28
  TRACK 39 AUDIO
    TITLE "0:"
    INDEX 01 00:39:41
  TRACK 40 AUDIO
    TITLE "2:cjc105_1972"
    INDEX 01 00:39:52
  TRACK 41 AUDIO
    TITLE "3:cjc105_1973"
    INDEX 01 00:41:45
  TRACK 42 AUDIO
    TITLE "0:"
    INDEX 01 00:43:39
  TRACK 43 AUDIO
    TITLE "2:cjc105_1974"
    INDEX 01 00:43:50
  TRACK 44 AUDIO
    TITLE "3:cjc105_1975"
    INDEX 01 00:45:02
  TRACK 45 AUDIO
    TITLE "0:"
    INDEX 01 00:46:58
  TRACK 46 AUDIO
    TITLE "2:cjc105_1976"
    INDEX 01 00:46:70
  TRACK 47 AUDIO
    TITLE "3:cjc105_1977"
    INDEX 01 00:48:57
  TRACK 48 AUDIO
    TITLE "0:"
    INDEX 01 00:50:27
  TRACK 49 AUDIO
    TITLE "2:cjc105_1978"
    INDEX 01 00:50:39
  TRACK 50 AUDIO
    TITLE "3:cjc105_1979"
    INDEX 01 00:52:14
  TRACK 51 AUDIO
    TITLE "0:"
    INDEX 01 00:53:47
  TRACK 52 AUDIO
    TITLE "2:cjc105_1980"
    INDEX 01 00:53:58
  TRACK 53 AUDIO
    TITLE "3:cjc105_1981"
    INDEX 01 00:55:22
  TRACK 54 AUDIO
    TITLE "0:"
    INDEX 01 00:56:59
  TRACK 55 AUDIO
    TITLE "2:cjc105_1982"
    INDEX 01 00:56:74
  TRACK 56 AUDIO
    TITLE "3:cjc105_1983"
    INDEX 01 00:58:34
  TRACK 57 AUDIO
    TITLE "0:"
    INDEX 01 01:00:53
  TRACK 58 AUDIO
    TITLE "2:cjc105_1984"
    INDEX 01 01:00:66
  TRACK 59 AUDIO
    TITLE "3:cjc105_1985"
    INDEX 01 01:02:61
  TRACK 60 AUDIO
    TITLE "0:"
    INDEX 01 01:05:11
  TRACK 61 AUDIO
    TITLE "2:cjc105_1986"
    INDEX 01 01:05:21
  TRACK 62 AUDIO
    TITLE "3:cjc105_1987"
    INDEX 01 01:07:02
  TRACK 63 AUDIO
    TITLE "0:"
    INDEX 01 01:08:68
  TRACK 64 AUDIO
    TITLE "2:cjc105_1988"
    INDEX 01 01:09:09
  TRACK 65 AUDIO
    TITLE "3:cjc105_1989"
    INDEX 01 01:10:69
  TRACK 66 AUDIO
    TITLE "0:"
    INDEX 01 01:12:24
  TRACK 67 AUDIO
    TITLE "2:cjc105_1990"
    INDEX 01 01:12:38
  TRACK 68 AUDIO
    TITLE "3:cjc105_1991"
    INDEX 01 01:13:65
  TRACK 69 AUDIO
    TITLE "0:"
    INDEX 01 01:14:74
  TRACK 70 AUDIO
    TITLE "2:cjc105_1992"
    INDEX 01 01:15:15
  TRACK 71 AUDIO
    TITLE "3:cjc105_1993"
    INDEX 01 01:16:38
  TRACK 72 AUDIO
    TITLE "0:"
    INDEX 01 01:17:65
  TRACK 73 AUDIO
    TITLE "2:cjc105_1994"
    INDEX 01 01:18:02
  TRACK 74 AUDIO
    TITLE "3:cjc105_1995"
    INDEX 01 01:19:07
  TRACK 75 AUDIO
    TITLE "0:"
    INDEX 01 01:20:32
  TRACK 76 AUDIO
    TITLE "2:cjc105_1996"
    INDEX 01 01:20:48
  TRACK 77 AUDIO
    TITLE "3:cjc105_1997"
    INDEX 01 01:21:67
  TRACK 78 AUDIO
    TITLE "0:"
    INDEX 01 01:23:50
  TRACK 79 AUDIO
    TITLE "2:cjc105_1998"
    INDEX 01 01:23:67
  TRACK 80 AUDIO
    TITLE "3:cjc105_1999"
    INDEX 01 01:25:19
  TRACK 81 AUDIO
    TITLE "0:"
    INDEX 01 01:28:25
  TRACK 82 AUDIO
    TITLE "2:cjc105_2000"
    INDEX 01 01:28:43
  TRACK 83 AUDIO
    TITLE "3:cjc105_2001"
    INDEX 01 01:29:50
  TRACK 84 AUDIO
    TITLE "0:"
    INDEX 01 01:31:26
  TRACK 85 AUDIO
    TITLE "2:cjc105_2002"
    INDEX 01 01:31:38
  TRACK 86 AUDIO
    TITLE "3:cjc105_2003"
    INDEX 01 01:32:53
  TRACK 87 AUDIO
    TITLE "0:"
    INDEX 01 01:35:18
  TRACK 88 AUDIO
    TITLE "2:cjc105_2004"
    INDEX 01 01:35:29
  TRACK 89 AUDIO
    TITLE "3:cjc105_2005"
    INDEX 01 01:36:41
  TRACK 90 AUDIO
    TITLE "0:"
    INDEX 01 01:38:06
  TRACK 91 AUDIO
    TITLE "2:cjc105_2006"
    INDEX 01 01:38:18
  TRACK 92 AUDIO
    TITLE "3:cjc105_2007"
    INDEX 01 01:39:25
  TRACK 93 AUDIO
    TITLE "0:"
    INDEX 01 01:41:26
  TRACK 94 AUDIO
    TITLE "2:cjc105_2008"
    INDEX 01 01:41:38
  TRACK 95 AUDIO
    TITLE "3:cjc105_2009"
    INDEX 01 01:43:02
  TRACK 96 AUDIO
    TITLE "0:"
    INDEX 01 01:44:30
  TRACK 97 AUDIO
    TITLE "2:cjc105_2010"
    INDEX 01 01:44:42
  TRACK 98 AUDIO
    TITLE "3:cjc105_2011"
    INDEX 01 01:45:63
  TRACK 99 AUDIO
    TITLE "0:"
    INDEX 01 01:47:40
  TRACK 100 AUDIO
    TITLE "2:cjc105_2012"
    INDEX 01 01:47:52
  TRACK 101 AUDIO
    TITLE "3:cjc105_2013"
    INDEX 01 01:49:26
  TRACK 102 AUDIO
    TITLE "0:"
    INDEX 01 01:50:68
  TRACK 103 AUDIO
    TITLE "2:cjc105_2014"
    INDEX 01 01:51:07
  TRACK 104 AUDIO
    TITLE "3:cjc105_2015"
    INDEX 01 01:52:32
  TRACK 105 AUDIO
    TITLE "0:"
    INDEX 01 01:53:70
  TRACK 106 AUDIO
    TITLE "2:cjc105_2016"
    INDEX 01 01:54:13
  TRACK 107 AUDIO
    TITLE "3:cjc105_2017"
    INDEX 01 01:55:44
  TRACK 108 AUDIO
    TITLE "0:"
    INDEX 01 01:57:02
  TRACK 109 AUDIO
    TITLE "2:cjc105_2018"
    INDEX 01 01:57:15
  TRACK 110 AUDIO
    TITLE "3:cjc105_2019"
    INDEX 01 01:58:56
  TRACK 111 AUDIO
    TITLE "0:"
    INDEX 01 02:00:22
  TRACK 112 AUDIO
    TITLE "2:cjc105_2020"
    INDEX 01 02:00:31
  TRACK 113 AUDIO
    TITLE "3:cjc105_2021"
    INDEX 01 02:01:41
  TRACK 114 AUDIO
    TITLE "0:"
    INDEX 01 02:03:32
  TRACK 115 AUDIO
    TITLE "2:cjc105_2022"
    INDEX 01 02:03:49
  TRACK 116 AUDIO
    TITLE "3:cjc105_2023"
    INDEX 01 02:04:55
  TRACK 117 AUDIO
    TITLE "0:"
    INDEX 01 02:07:02
  TRACK 118 AUDIO
    TITLE "2:cjc105_2024"
    INDEX 01 02:07:14
  TRACK 119 AUDIO
    TITLE "3:cjc105_2025"
    INDEX 01 02:08:72
  TRACK 120 AUDIO
    TITLE "0:"
    INDEX 01 02:10:63
  TRACK 121 AUDIO
    TITLE "2:cjc105_2026"
    INDEX 01 02:11:02
  TRACK 122 AUDIO
    TITLE "3:cjc105_2027"
    INDEX 01 02:12:03
  TRACK 123 AUDIO
    TITLE "0:"
    INDEX 01 02:13:14
  TRACK 124 AUDIO
    TITLE "2:cjc105_2028"
    INDEX 01 02:13:28
  TRACK 125 AUDIO
    TITLE "3:cjc105_2029"
    INDEX 01 02:15:11
  TRACK 126 AUDIO
    TITLE "0:"
    INDEX 01 02:17:02
  TRACK 127 AUDIO
    TITLE "2:cjc105_2030"
    INDEX 01 02:17:14
  TRACK 128 AUDIO
    TITLE "3:cjc105_2031"
    INDEX 01 02:18:61
  TRACK 129 AUDIO
    TITLE "0:"
    INDEX 01 02:21:37
  TRACK 130 AUDIO
    TITLE "2:cjc105_2032"
    INDEX 01 02:21:47
  TRACK 131 AUDIO
    TITLE "3:cjc105_2033"
    INDEX 01 02:22:64
  TRACK 132 AUDIO
    TITLE "0:"
    INDEX 01 02:24:51
  TRACK 133 AUDIO
    TITLE "2:cjc105_2034"
    INDEX 01 02:24:67
  TRACK 134 AUDIO
    TITLE "3:cjc105_2035"
    INDEX 01 02:26:33
  TRACK 135 AUDIO
    TITLE "0:"
    INDEX 01 02:28:26
